<svg xmlns="http://www.w3.org/2000/svg" width="57.567" height="46.261" viewBox="0 0 57.567 46.261"><defs><style>.a{fill:#fff;}</style></defs><path class="a" d="M6.112,15.252H55.455a4.393,4.393,0,0,0,4.112-4.626A4.393,4.393,0,0,0,55.455,6H6.112A4.393,4.393,0,0,0,2,10.626,4.393,4.393,0,0,0,6.112,15.252ZM55.455,24.5H6.112A4.393,4.393,0,0,0,2,29.13a4.393,4.393,0,0,0,4.112,4.626H55.455a4.393,4.393,0,0,0,4.112-4.626A4.393,4.393,0,0,0,55.455,24.5Zm0,18.5H6.112A4.393,4.393,0,0,0,2,47.635a4.393,4.393,0,0,0,4.112,4.626H55.455a4.393,4.393,0,0,0,4.112-4.626A4.393,4.393,0,0,0,55.455,43.009Z" transform="translate(-2 -6)"/></svg>