<svg xmlns="http://www.w3.org/2000/svg" width="33" height="33" viewBox="0 0 33 33"><defs><style>.a{fill:#fff;}</style></defs><g transform="translate(33) rotate(90)"><g transform="translate(0 0)"><path class="a" d="M26.619,24.894c1.422,2.185,2.092,3.345,2.092,4.555,0,2.39-1.818,3.549-4.267,3.549a6.276,6.276,0,0,1-3.538-.9,5.574,5.574,0,0,0-3.812-.915,5.577,5.577,0,0,0-3.838.928A6.177,6.177,0,0,1,9.744,33c-2.449,0-4.269-1.157-4.269-3.549,0-1.21.672-2.369,2.093-4.555a35.767,35.767,0,0,1,5.014-6.4,6.971,6.971,0,0,1,4.134-1.473h.756a6.782,6.782,0,0,1,4.136,1.474A43.512,43.512,0,0,1,26.619,24.894ZM11.109,14.107c2.561,0,4.636-3.158,4.636-7.054S13.67,0,11.109,0,6.473,3.158,6.473,7.054,8.549,14.107,11.109,14.107ZM6.666,20.938c1.887-.851,2.318-3.867.961-6.737S3.64,9.693,1.752,10.543-.565,14.41.792,17.28,4.779,21.788,6.666,20.938Zm15.223-6.831c2.561,0,4.637-3.158,4.637-7.054S24.45,0,21.889,0s-4.636,3.158-4.636,7.054S19.328,14.107,21.889,14.107Zm9.358-3.565c-1.888-.851-4.517.787-5.875,3.658s-.927,5.887.961,6.738,4.517-.788,5.875-3.658S33.135,11.393,31.247,10.542Z"/></g></g></svg>