<?xml version="1.0" encoding="iso-8859-1"?>
<!-- Generator: Adobe Illustrator 19.0.0, SVG Export Plug-In . SVG Version: 6.00 Build 0)  -->
<svg version="1.1" id="Capa_1" xmlns="http://www.w3.org/2000/svg" xmlns:xlink="http://www.w3.org/1999/xlink" x="0px" y="0px"
	 viewBox="0 0 480 480" style="enable-background:new 0 0 480 480;" xml:space="preserve">
<g>
	<g>
		<path d="M472,336h-13.544c-1.128-3.2-2.416-6.328-3.848-9.344l9.56-9.568c3.128-3.128,3.128-8.184,0-11.312l-33.936-33.936
			c-3.128-3.128-8.184-3.128-11.312,0l-9.568,9.56c-3.024-1.44-6.152-2.728-9.344-3.848V264v-64V88c0-4.416-3.584-8-8-8H288V40
			c0-22.056-17.944-40-40-40h-96c-22.056,0-40,17.944-40,40v40H8c-4.416,0-8,3.584-8,8v112v160c0,4.416,3.584,8,8,8h248v24
			c0,4.416,3.584,8,8,8h13.544c1.128,3.2,2.416,6.328,3.848,9.344l-9.56,9.568c-3.128,3.128-3.128,8.184,0,11.312l33.936,33.936
			c3.128,3.128,8.184,3.128,11.312,0l9.568-9.56c3.024,1.44,6.152,2.728,9.344,3.848V472c0,4.416,3.584,8,8,8h48
			c4.416,0,8-3.584,8-8v-13.544c3.2-1.128,6.328-2.416,9.344-3.848l9.568,9.56c3.128,3.128,8.184,3.128,11.312,0l33.936-33.936
			c3.128-3.128,3.128-8.184,0-11.312l-9.56-9.568c1.44-3.024,2.728-6.152,3.848-9.344H472c4.416,0,8-3.584,8-8v-48
			C480,339.584,476.416,336,472,336z M128,40c0-13.232,10.768-24,24-24h96c13.232,0,24,10.768,24,24v40h-16V40c0-4.416-3.584-8-8-8
			h-96c-4.416,0-8,3.584-8,8v40h-16V40z M240,48v32h-80V48H240z M16,96h104h32h96h32h104v100.688L364.688,216H232v-24
			c0-4.416-3.584-8-8-8h-48c-4.416,0-8,3.584-8,8v24H35.312L16,196.688V96z M184,216v-16h32v16H184z M216,232v16h-32v-16H216z
			 M256,343.992v8H16v-132.68l10.344,10.344C27.84,231.16,29.88,232,32,232h136v24c0,4.416,3.584,8,8,8h48c4.416,0,8-3.584,8-8v-24
			h136c2.12,0,4.16-0.84,5.656-2.344L384,219.312V256h-40c-4.416,0-8,3.584-8,8v13.544c-3.2,1.128-6.328,2.416-9.344,3.848
			l-9.568-9.56c-3.128-3.128-8.184-3.128-11.312,0l-33.936,33.936c-3.128,3.128-3.128,8.184,0,11.312l9.56,9.568
			c-1.44,3.024-2.728,6.152-3.848,9.344H264C259.584,335.992,256,339.576,256,343.992z M464,384h-11.4
			c-3.576,0-6.72,2.376-7.696,5.816c-1.72,6.064-4.096,11.832-7.072,17.16c-1.744,3.128-1.2,7.024,1.328,9.56l8.032,8.04
			L424.568,447.2l-8.04-8.032c-2.528-2.528-6.44-3.072-9.56-1.328c-5.32,2.976-11.096,5.352-17.16,7.072
			c-3.432,0.968-5.808,4.112-5.808,7.688V464h-32v-11.4c0-3.576-2.376-6.72-5.816-7.696c-6.064-1.72-11.832-4.096-17.16-7.072
			c-3.128-1.744-7.024-1.2-9.56,1.328l-8.04,8.032L288.8,424.568l8.032-8.04c2.528-2.528,3.072-6.432,1.328-9.56
			c-2.976-5.32-5.352-11.096-7.072-17.16c-0.968-3.432-4.112-5.808-7.688-5.808H272v-24v-8h11.4c3.576,0,6.72-2.376,7.696-5.816
			c1.72-6.064,4.096-11.832,7.072-17.16c1.744-3.128,1.2-7.024-1.328-9.56l-8.032-8.04l22.624-22.624l8.04,8.032
			c2.528,2.528,6.432,3.08,9.56,1.328c5.32-2.976,11.096-5.352,17.16-7.072c3.432-0.968,5.808-4.112,5.808-7.688V272h32v11.4
			c0,3.576,2.376,6.72,5.816,7.696c6.064,1.72,11.832,4.096,17.16,7.072c3.12,1.752,7.024,1.2,9.56-1.328l8.04-8.032l22.624,22.624
			l-8.032,8.04c-2.528,2.528-3.072,6.432-1.328,9.56c2.976,5.32,5.352,11.096,7.072,17.16c0.968,3.432,4.112,5.808,7.688,5.808H464
			V384z"/>
	</g>
</g>
<g>
	<g>
		<path d="M368,312c-30.88,0-56,25.12-56,56s25.12,56,56,56s56-25.12,56-56S398.88,312,368,312z M368,408c-22.056,0-40-17.944-40-40
			c0-22.056,17.944-40,40-40c22.056,0,40,17.944,40,40C408,390.056,390.056,408,368,408z"/>
	</g>
</g>
<g>
	<g>
		<rect x="32" y="320" width="16" height="16"/>
	</g>
</g>
<g>
	<g>
		<rect x="64" y="320" width="16" height="16"/>
	</g>
</g>
<g>
	<g>
		<rect x="96" y="320" width="16" height="16"/>
	</g>
</g>
<g>
</g>
<g>
</g>
<g>
</g>
<g>
</g>
<g>
</g>
<g>
</g>
<g>
</g>
<g>
</g>
<g>
</g>
<g>
</g>
<g>
</g>
<g>
</g>
<g>
</g>
<g>
</g>
<g>
</g>
</svg>
