<svg xmlns="http://www.w3.org/2000/svg" viewBox="0 0 492 491.97"><defs><style>.cls-1{fill:#fff;}</style></defs><g id="レイヤー_2" data-name="レイヤー 2"><g id="レイヤー_1-2" data-name="レイヤー 1"><path class="cls-1" d="M300.19,246l184-184a27,27,0,0,0,0-38.05L468,7.86a27,27,0,0,0-38.06,0L246,191.8,62.05,7.86a27,27,0,0,0-38,0L7.87,24A26.94,26.94,0,0,0,7.87,62l184,184-184,184a27,27,0,0,0,0,38.06L24,484.11a26.94,26.94,0,0,0,38,0L246,300.16l184,184A26.69,26.69,0,0,0,449,492h0a26.73,26.73,0,0,0,19-7.86L484.14,468a27,27,0,0,0,0-38.06Z"/></g></g></svg>